# Blender v2.82 (sub 7) OBJ File: 'sectorCircle.blend'
# www.blender.org
mtllib sectorCircle.mtl
o Окружность_Окружность.004
v 0.000000 0.500000 1.000000
v 0.000000 0.000000 1.000000
v -0.520945 0.000000 1.045577
v -1.026060 0.000000 1.180922
v -1.500000 0.000000 1.401924
v 1.500002 0.000000 1.401925
v 1.026062 0.000000 1.180923
v 0.520947 0.000000 1.045577
v 0.000000 0.000000 -1.040000
v -0.875187 0.000000 -0.963431
v -1.723781 0.000000 -0.736051
v -2.520000 0.000000 -0.364768
v 2.520003 0.000000 -0.364767
v 1.723785 0.000000 -0.736050
v 0.875191 0.000000 -0.963431
v -0.520945 0.500000 1.045577
v -1.026060 0.500000 1.180922
v -1.500000 0.500000 1.401924
v 1.500002 0.500000 1.401925
v 1.026062 0.500000 1.180923
v 0.520947 0.500000 1.045577
v 0.000000 0.500000 -1.040000
v -0.875187 0.500000 -0.963431
v -1.723781 0.500000 -0.736051
v -2.520000 0.500000 -0.364768
v 2.520003 0.500000 -0.364767
v 1.723785 0.500000 -0.736050
v 0.875191 0.500000 -0.963431
vt 0.500000 1.000000
vt 0.586824 0.992404
vt 0.586824 0.992404
vt 0.500000 1.000000
vt 0.328990 0.969846
vt 0.413176 0.992404
vt 0.413176 0.992404
vt 0.328990 0.969846
vt 0.671010 0.969846
vt 0.671010 0.969846
vt 0.750000 0.933013
vt 0.750000 0.933013
vt 0.250000 0.933013
vt 0.250000 0.933013
vt 0.250000 0.933013
vt 0.250000 0.933013
vt 0.750000 0.933013
vt 0.750000 0.933013
vt 0.671010 0.969846
vt 0.671010 0.969846
vt 0.413176 0.992404
vt 0.413176 0.992404
vt 0.500000 1.000000
vt 0.500000 1.000000
vt 0.586824 0.992404
vt 0.586824 0.992404
vt 0.328990 0.969846
vt 0.328990 0.969846
vn 0.0000 1.0000 0.0000
vn -0.8660 0.0000 0.5000
vn 0.8660 0.0000 0.5000
vn 0.0000 -1.0000 0.0000
vn -0.4226 0.0000 0.9063
vn -0.2588 0.0000 0.9659
vn -0.0872 0.0000 0.9962
vn -0.0872 0.0000 -0.9962
vn -0.2588 0.0000 -0.9659
vn -0.4226 0.0000 -0.9063
vn 0.0872 0.0000 0.9962
vn 0.4226 0.0000 -0.9063
vn 0.2588 0.0000 -0.9659
vn 0.0872 0.0000 -0.9962
vn 0.2588 0.0000 0.9659
vn 0.4226 0.0000 0.9063
usemtl None
s off
f 1/1/1 21/2/1 28/3/1 22/4/1
f 17/5/1 16/6/1 23/7/1 24/8/1
f 21/2/1 20/9/1 27/10/1 28/3/1
f 16/6/1 1/1/1 22/4/1 23/7/1
f 20/9/1 19/11/1 26/12/1 27/10/1
f 12/13/2 5/14/2 18/15/2 25/16/2
f 6/17/3 13/18/3 26/12/3 19/11/3
f 18/15/1 17/5/1 24/8/1 25/16/1
f 7/19/4 14/20/4 13/18/4 6/17/4
f 3/21/4 10/22/4 9/23/4 2/24/4
f 8/25/4 15/26/4 14/20/4 7/19/4
f 4/27/4 11/28/4 10/22/4 3/21/4
f 2/24/4 9/23/4 15/26/4 8/25/4
f 5/14/4 12/13/4 11/28/4 4/27/4
f 7/19/5 6/17/5 19/11/5 20/9/5
f 8/25/6 7/19/6 20/9/6 21/2/6
f 2/24/7 8/25/7 21/2/7 1/1/7
f 9/23/8 10/22/8 23/7/8 22/4/8
f 10/22/9 11/28/9 24/8/9 23/7/9
f 11/28/10 12/13/10 25/16/10 24/8/10
f 3/21/11 2/24/11 1/1/11 16/6/11
f 13/18/12 14/20/12 27/10/12 26/12/12
f 14/20/13 15/26/13 28/3/13 27/10/13
f 15/26/14 9/23/14 22/4/14 28/3/14
f 4/27/15 3/21/15 16/6/15 17/5/15
f 5/14/16 4/27/16 17/5/16 18/15/16
