# Blender v2.82 (sub 7) OBJ File: 'sectorConvex.blend'
# www.blender.org
mtllib sector40.mtl
o Окружность_Окружность.002
v 0.000000 0.000000 1.000000
v -0.520945 0.000000 1.045577
v -1.026060 0.000000 1.180922
v 1.026062 0.000000 1.180923
v 0.520947 0.000000 1.045577
v 0.000000 0.000000 -1.040000
v -0.875187 0.000000 -0.963431
v -1.723781 0.000000 -0.736051
v 1.723785 0.000000 -0.736050
v 0.875191 0.000000 -0.963431
v 0.000000 0.500000 1.000000
v -0.520945 0.500000 1.045577
v -1.026060 0.500000 1.180922
v 1.026062 0.500000 1.180923
v 0.520947 0.500000 1.045577
v 0.000000 0.500000 -1.040000
v -0.875187 0.500000 -0.963431
v -1.723781 0.500000 -0.736051
v 1.723785 0.500000 -0.736050
v 0.875191 0.500000 -0.963431
vt 0.586824 0.992404
vt 0.586824 0.992404
vt 0.671010 0.969846
vt 0.671010 0.969846
vt 0.328990 0.969846
vt 0.328990 0.969846
vt 0.413176 0.992404
vt 0.413176 0.992404
vt 0.500000 1.000000
vt 0.500000 1.000000
vt 0.586824 0.992404
vt 0.671010 0.969846
vt 0.671010 0.969846
vt 0.586824 0.992404
vt 0.328990 0.969846
vt 0.413176 0.992404
vt 0.413176 0.992404
vt 0.328990 0.969846
vt 0.500000 1.000000
vt 0.500000 1.000000
vn 0.0000 -1.0000 0.0000
vn 0.0000 1.0000 0.0000
vn -0.0872 0.0000 -0.9962
vn -0.2588 0.0000 -0.9659
vn 0.2588 0.0000 -0.9659
vn 0.0872 0.0000 -0.9962
vn -0.9397 0.0000 0.3420
vn 0.2588 0.0000 0.9659
vn 0.0872 0.0000 0.9962
vn -0.0872 0.0000 0.9962
vn -0.2588 0.0000 0.9659
vn 0.9397 0.0000 0.3420
usemtl material
s off
f 5/1/1 10/2/1 9/3/1 4/4/1
f 3/5/1 8/6/1 7/7/1 2/8/1
f 1/9/1 6/10/1 10/2/1 5/1/1
f 2/8/1 7/7/1 6/10/1 1/9/1
f 15/11/2 14/12/2 19/13/2 20/14/2
f 13/15/2 12/16/2 17/17/2 18/18/2
f 11/19/2 15/11/2 20/14/2 16/20/2
f 12/16/2 11/19/2 16/20/2 17/17/2
f 6/10/3 7/7/3 17/17/3 16/20/3
f 7/7/4 8/6/4 18/18/4 17/17/4
f 9/3/5 10/2/5 20/14/5 19/13/5
f 10/2/6 6/10/6 16/20/6 20/14/6
f 3/5/7 13/15/7 18/18/7 8/6/7
f 2/8/8 12/16/8 13/15/8 3/5/8
f 1/9/9 11/19/9 12/16/9 2/8/9
f 5/1/10 15/11/10 11/19/10 1/9/10
f 4/4/11 14/12/11 15/11/11 5/1/11
f 9/3/12 19/13/12 14/12/12 4/4/12
