# Blender v2.82 (sub 7) OBJ File: 'sectorPrizm.blend'
# www.blender.org
mtllib sector90.mtl
o Плоскость_Плоскость.001
v -5.000000 0.000000 -1.000000
v 5.000000 0.000000 -1.000000
v -3.000000 0.000000 1.000000
v 3.000000 0.000000 1.000000
v -5.000000 0.500000 -1.000000
v 5.000000 0.500000 -1.000000
v -3.000000 0.500000 1.000000
v 3.000000 0.500000 1.000000
vt 0.000000 0.000000
vt 0.000000 0.000000
vt 0.000000 0.000000
vt 0.000000 0.000000
vt 0.000000 0.000000
vt 0.000000 0.000000
vt 0.000000 0.000000
vt 0.000000 0.000000
vn 0.0000 -1.0000 0.0000
vn 0.0000 1.0000 0.0000
vn -0.7071 0.0000 0.7071
vn 0.7071 0.0000 0.7071
vn 0.0000 0.0000 -1.0000
vn 0.0000 0.0000 1.0000
usemtl (null)
s off
f 2/1/1 4/2/1 3/3/1 1/4/1
f 6/5/2 5/6/2 7/7/2 8/8/2
f 3/3/3 7/7/3 5/6/3 1/4/3
f 2/1/4 6/5/4 8/8/4 4/2/4
f 2/1/5 1/4/5 5/6/5 6/5/5
f 3/3/6 4/2/6 8/8/6 7/7/6
